<svg xmlns="http://www.w3.org/2000/svg" xmlns:xlink="http://www.w3.org/1999/xlink"><defs><style>
    .sprite-symbol-usage {display: none;}
    .sprite-symbol-usage:target {display: inline;}
  </style><symbol viewBox="0 0 29 29" id="facebook"><path d="M15.49 29H1.6A1.6 1.6 0 0 1 0 27.4V1.6A1.6 1.6 0 0 1 1.6 0h25.8A1.6 1.6 0 0 1 29 1.6v25.8a1.6 1.6 0 0 1-1.6 1.6h-7.39V17.77h3.77l.564-4.377H20.01V10.6c0-1.267.352-2.131 2.169-2.131H24.5V4.552a30.982 30.982 0 0 0-3.377-.173c-3.341 0-5.629 2.04-5.629 5.785v3.228h-3.783v4.378h3.779V29Z" fill="#fff" /></symbol><symbol viewBox="0 0 29 29" id="instagram"><path d="M8.522 28.913a10.719 10.719 0 0 1-3.521-.674 7.111 7.111 0 0 1-2.569-1.673 7.109 7.109 0 0 1-1.67-2.565 10.733 10.733 0 0 1-.674-3.52c-.071-1.567-.087-2.086-.087-5.98s.017-4.414.087-5.978a10.733 10.733 0 0 1 .674-3.522 7.112 7.112 0 0 1 1.672-2.567A7.112 7.112 0 0 1 5.001.762 10.733 10.733 0 0 1 8.522.087c1.564-.07 2.079-.086 5.979-.086s4.414.017 5.979.087a10.733 10.733 0 0 1 3.521.674 7.109 7.109 0 0 1 2.568 1.672 7.111 7.111 0 0 1 1.67 2.567 10.719 10.719 0 0 1 .673 3.52c.07 1.545.087 2.059.087 5.978s-.017 4.433-.087 5.979a10.719 10.719 0 0 1-.673 3.523 7.424 7.424 0 0 1-4.238 4.238 10.719 10.719 0 0 1-3.52.673c-1.546.07-2.061.087-5.979.087s-4.434-.016-5.98-.086Zm.056-26.342a8.129 8.129 0 0 0-2.721.5 4.528 4.528 0 0 0-1.685 1.1 4.528 4.528 0 0 0-1.1 1.685 8.129 8.129 0 0 0-.5 2.721c-.071 1.563-.086 2.024-.086 5.924s.015 4.361.086 5.922a8.13 8.13 0 0 0 .5 2.722 4.535 4.535 0 0 0 1.1 1.685 4.536 4.536 0 0 0 1.685 1.1 8.1 8.1 0 0 0 2.721.5c1.542.07 2 .086 5.922.086s4.38-.015 5.922-.086a8.1 8.1 0 0 0 2.722-.5 4.854 4.854 0 0 0 2.781-2.781 8.1 8.1 0 0 0 .5-2.722c.07-1.542.086-2 .086-5.922s-.015-4.38-.086-5.922a9.14 9.14 0 0 0-.333-2.225 2.486 2.486 0 1 1-3.446-3.457 9.141 9.141 0 0 0-2.224-.334c-1.562-.07-2.028-.086-5.922-.086s-4.36.02-5.922.09Zm-1.12 12.344a7.457 7.457 0 1 1 7.457 7.457 7.466 7.466 0 0 1-7.457-7.457Zm2.486 0a4.971 4.971 0 1 0 4.972-4.972 4.977 4.977 0 0 0-4.973 4.972Z" fill="#fff" /></symbol><symbol viewBox="0 0 67.83 27.047" id="nbo"><path d="M19.681 26.933h-7.365v-9.809h-4.77v9.808H0V1.624h7.546v9.442h4.77V1.624h7.365Z" /><path data-name="Combined Shape" d="M53.458 27.046a13.911 13.911 0 0 1-8.686-2.851 13.581 13.581 0 0 1-3.75-4.394 6.924 6.924 0 0 1-2.271 4.812 8.427 8.427 0 0 1-5.848 2.318H21.19V1.624h12.587a7.33 7.33 0 0 1 5.082 2.265 6.877 6.877 0 0 1 2.163 4.612 12.429 12.429 0 0 1 3.705-4.443 14.011 14.011 0 0 1 8.731-2.857 14.137 14.137 0 0 1 9.682 3.71 12.374 12.374 0 0 1 4.022 9.142 12.575 12.575 0 0 1-4.022 9.171 13.986 13.986 0 0 1-9.682 3.822ZM28.224 16.758v4.284h3.743a2.15 2.15 0 0 0 0-4.284Zm25.234-9.131a6.673 6.673 0 0 0-6.882 6.426 6.686 6.686 0 0 0 6.882 6.455 6.686 6.686 0 0 0 6.881-6.455 6.673 6.673 0 0 0-6.881-6.426Zm-13.704 4.874a5.878 5.878 0 0 1-2.838 1.55 5.721 5.721 0 0 1 2.838 1.95 9.8 9.8 0 0 1 0-3.5Zm-11.53-5.24v4.227h3.743a2.069 2.069 0 0 0 1.962-2.113 2.07 2.07 0 0 0-1.962-2.114Z" /><path data-name="Path" d="M63.988 1.963A1.647 1.647 0 0 1 65.703.33a1.641 1.641 0 1 1 0 3.279 1.647 1.647 0 0 1-1.715-1.646Z" /><path data-name="Path" d="M65.704 3.934a2.038 2.038 0 0 0 2.126-1.971A2.037 2.037 0 0 0 65.704 0a2.042 2.042 0 0 0-2.141 1.963 2.043 2.043 0 0 0 2.141 1.971Z" /><path data-name="Path" d="M65.257 2.118h.424l.641.984h.413l-.691-1c.355-.041.63-.218.63-.625 0-.444-.284-.644-.86-.644h-.924v2.269h.367Z" /><path data-name="Path" d="M65.256 1.827v-.7h.5c.257 0 .531.049.531.332.001.349-.278.368-.59.368Z" /></symbol><symbol viewBox="0 0 50 64" id="triangle"><path data-name="Path 2" d="M0 0v64l50-32Z" fill="#fff" /></symbol><symbol viewBox="0 0 27 24" id="vimeo"><path d="M26.986 5.549q-.176 4.057-5.5 11.094Q15.978 24 12.162 24 9.8 24 8.171 19.516q-1.093-4.116-2.18-8.229Q4.777 6.8 3.388 6.8A8.293 8.293 0 0 0 1.27 8.108L0 6.422q2-1.8 3.935-3.612Q6.593.44 7.928.314 11.071 0 11.8 4.739q.779 5.114 1.086 6.36.91 4.239 2 4.235.845 0 2.542-2.739a10.94 10.94 0 0 0 1.815-4.178c.162-1.58-.443-2.365-1.815-2.365a5.028 5.028 0 0 0-2 .435q2-6.67 7.626-6.482 4.17.12 3.929 5.544" fill="#fff" /></symbol><symbol viewBox="0 0 198.54 48.105" id="wow"><path d="M89.618 46.417a21.737 21.737 0 0 1-7.56-4.815 21.318 21.318 0 0 1-4.9-7.6A27.693 27.693 0 0 1 75.42 23.94a27.2 27.2 0 0 1 1.733-9.967 21.174 21.174 0 0 1 4.9-7.538 21.634 21.634 0 0 1 7.56-4.77A27.273 27.273 0 0 1 99.36 0a26.957 26.957 0 0 1 9.675 1.665 21.221 21.221 0 0 1 7.493 4.77 21.481 21.481 0 0 1 4.86 7.538 27.2 27.2 0 0 1 1.732 9.967A27.693 27.693 0 0 1 121.388 34a21.628 21.628 0 0 1-4.86 7.6 21.323 21.323 0 0 1-7.493 4.815A26.629 26.629 0 0 1 99.36 48.1a26.94 26.94 0 0 1-9.742-1.683Zm83.093.968a2.271 2.271 0 0 1-1.53-.54 3.639 3.639 0 0 1-.99-1.8L163.53 21.78q-.45-1.575-.855-3.1t-.72-3.06q-.315 1.575-.7 3.127t-.878 3.128l-6.75 23.175a2.871 2.871 0 0 1-2.97 2.34h-10.8L125.37.72h11.16a4.74 4.74 0 0 1 2.565.675A2.69 2.69 0 0 1 140.4 3.15l4.68 20.925q.54 2.385.99 4.635t.81 4.455q.63-2.2 1.327-4.433t1.372-4.657l5.85-20.97a2.985 2.985 0 0 1 1.3-1.732 4.165 4.165 0 0 1 2.385-.7h6.21a4.51 4.51 0 0 1 2.542.7 2.967 2.967 0 0 1 1.334 1.732l5.58 20.97q.63 2.385 1.283 4.635t1.238 4.545q.36-2.25.878-4.478t1.1-4.7L184.23 3.15a2.705 2.705 0 0 1 1.282-1.755A4.377 4.377 0 0 1 187.92.72h10.62l-14.49 46.665Zm-125.37 0a2.271 2.271 0 0 1-1.53-.54 3.639 3.639 0 0 1-.99-1.8L38.16 21.78q-.45-1.575-.855-3.1t-.72-3.06q-.315 1.575-.7 3.127t-.875 3.123l-6.75 23.175a2.871 2.871 0 0 1-2.97 2.34h-10.8L0 .72h11.16a4.74 4.74 0 0 1 2.565.675A2.69 2.69 0 0 1 15.03 3.15l4.68 20.925q.54 2.385.99 4.635t.81 4.455q.63-2.2 1.327-4.433t1.373-4.657l5.85-20.97a2.985 2.985 0 0 1 1.305-1.732 4.165 4.165 0 0 1 2.385-.7h6.21a4.51 4.51 0 0 1 2.543.7 2.967 2.967 0 0 1 1.327 1.732l5.58 20.97q.63 2.385 1.283 4.635t1.237 4.545q.36-2.25.878-4.478t1.1-4.7L58.86 3.15a2.705 2.705 0 0 1 1.283-1.755A4.377 4.377 0 0 1 62.55.72h10.62L58.68 47.385Z" fill="#fff" /></symbol><symbol viewBox="0 0 199 185" id="wow_big"><text data-name="We’re a" transform="translate(53 32)" fill="#fff" font-size="30" font-family="SegoeUI, Segoe UI"><tspan x="0" y="0">We’re a</tspan></text><text transform="translate(0 177)" fill="#fff" font-size="30" font-family="SegoeUI, Segoe UI" letter-spacing=".367em"><tspan x="0" y="0">FACTORY</tspan></text><path d="M89.618 98.417a21.737 21.737 0 0 1-7.56-4.815 21.318 21.318 0 0 1-4.9-7.6A27.693 27.693 0 0 1 75.42 75.94a27.2 27.2 0 0 1 1.733-9.967 21.174 21.174 0 0 1 4.9-7.538 21.634 21.634 0 0 1 7.56-4.77A27.273 27.273 0 0 1 99.36 52a26.957 26.957 0 0 1 9.675 1.665 21.221 21.221 0 0 1 7.493 4.77 21.481 21.481 0 0 1 4.86 7.538 27.2 27.2 0 0 1 1.732 9.967A27.693 27.693 0 0 1 121.388 86a21.628 21.628 0 0 1-4.86 7.6 21.323 21.323 0 0 1-7.493 4.815 26.629 26.629 0 0 1-9.675 1.685 26.94 26.94 0 0 1-9.742-1.683Zm83.093.968a2.271 2.271 0 0 1-1.53-.54 3.639 3.639 0 0 1-.99-1.8L163.53 73.78q-.45-1.575-.855-3.1t-.72-3.06q-.315 1.575-.7 3.127t-.878 3.128l-6.75 23.175a2.871 2.871 0 0 1-2.97 2.34h-10.8L125.37 52.72h11.16a4.74 4.74 0 0 1 2.565.675 2.69 2.69 0 0 1 1.305 1.755l4.68 20.925q.54 2.385.99 4.635t.81 4.455q.63-2.2 1.327-4.433t1.372-4.657l5.85-20.97a2.985 2.985 0 0 1 1.3-1.732 4.165 4.165 0 0 1 2.385-.7h6.21a4.51 4.51 0 0 1 2.542.7 2.967 2.967 0 0 1 1.334 1.732l5.58 20.97q.63 2.385 1.283 4.635t1.238 4.545q.36-2.25.878-4.478t1.1-4.7l4.951-20.927a2.705 2.705 0 0 1 1.282-1.755 4.377 4.377 0 0 1 2.408-.675h10.62l-14.49 46.665Zm-125.37 0a2.271 2.271 0 0 1-1.53-.54 3.639 3.639 0 0 1-.99-1.8L38.16 73.78q-.45-1.575-.855-3.1t-.72-3.06q-.315 1.575-.7 3.127t-.875 3.123l-6.75 23.175a2.871 2.871 0 0 1-2.97 2.34h-10.8L0 52.72h11.16a4.74 4.74 0 0 1 2.565.675 2.69 2.69 0 0 1 1.305 1.755l4.68 20.925q.54 2.385.99 4.635t.81 4.455q.63-2.2 1.327-4.433t1.373-4.657l5.85-20.97a2.985 2.985 0 0 1 1.305-1.732 4.165 4.165 0 0 1 2.385-.7h6.21a4.51 4.51 0 0 1 2.543.7 2.967 2.967 0 0 1 1.327 1.732l5.58 20.97q.63 2.385 1.283 4.635t1.237 4.545q.36-2.25.878-4.478t1.1-4.7L58.86 55.15a2.705 2.705 0 0 1 1.283-1.755 4.377 4.377 0 0 1 2.407-.675h10.62L58.68 99.385Z" fill="#fff" /><path fill="#f6285b" d="M0 115h199v15H0z" /></symbol><symbol viewBox="0 0 34 24" id="youtube"><path d="M17 24c-.088 0-8.871-.084-11.561-.344-.128-.024-.282-.042-.46-.064a5.006 5.006 0 0 1-3.29-1.4A7.436 7.436 0 0 1 .34 18.811 52.15 52.15 0 0 1 0 13.289V10.7a52.249 52.249 0 0 1 .34-5.523A7.441 7.441 0 0 1 1.69 1.79 4.68 4.68 0 0 1 4.88.368L5.1.346C9.8 0 16.922 0 16.993 0h.014C17.079 0 24.2 0 28.9.346c.065.008.138.015.218.023a4.676 4.676 0 0 1 3.19 1.421 7.452 7.452 0 0 1 1.352 3.387A52.2 52.2 0 0 1 34 10.7v2.589a52.2 52.2 0 0 1-.34 5.522 7.451 7.451 0 0 1-1.352 3.389 4.678 4.678 0 0 1-3.186 1.423c-.08.008-.154.015-.22.023C24.2 23.985 17.072 24 17 24ZM14.1 7.448v9.931l7.463-4.948Z" fill="#fff" /></symbol></defs><use id="facebook-usage" xlink:href="#facebook" class="sprite-symbol-usage" /><use id="instagram-usage" xlink:href="#instagram" class="sprite-symbol-usage" /><use id="nbo-usage" xlink:href="#nbo" class="sprite-symbol-usage" /><use id="triangle-usage" xlink:href="#triangle" class="sprite-symbol-usage" /><use id="vimeo-usage" xlink:href="#vimeo" class="sprite-symbol-usage" /><use id="wow-usage" xlink:href="#wow" class="sprite-symbol-usage" /><use id="wow_big-usage" xlink:href="#wow_big" class="sprite-symbol-usage" /><use id="youtube-usage" xlink:href="#youtube" class="sprite-symbol-usage" /></svg>